# xmcd
#
# Track frame offsets:
#	150
#	21276
#	34411
#	51532
#	70229
#	84823
#	101766
#	116572
#	134513
#	159770
#	174613
#	198258
#	213529
#
# Disc length: 3030 seconds
#
# Revision: 0
# Processed by: cddbd v1.5.1PL0 Copyright (c) Steve Scherf et al.
# Submitted via: EasyCDDAExtractor 4.5.0.2
#
DISCID=b70bd40d
DTITLE=Miquela Lladó - Com un ventall
DYEAR=2004
DGENRE=Cançó en català
TTITLE0=A les Roses
TTITLE1=Me'n vaig a peu
TTITLE2=Saler de Sol
TTITLE3=Es Color de s'Alegria
TTITLE4=A Poc a Poc
TTITLE5=No Vull Enyorança
TTITLE6=Cançó des Carrer
TTITLE7=Pena Peneta Pena
TTITLE8=Goteres Blues
TTITLE9=Mai donis per finit
TTITLE10=El Cant del Ocells
TTITLE11=Trobador
TTITLE12=Es Puig de Selva
EXTD=
EXTT0=
EXTT1=
EXTT2=
EXTT3=
EXTT4=
EXTT5=
EXTT6=
EXTT7=
EXTT8=
EXTT9=
EXTT10=
EXTT11=
EXTT12=
PLAYORDER=
